<svg xmlns="http://www.w3.org/2000/svg" viewBox="0 0 930.98 500"><defs><style>.cls-1,.cls-12{fill:#92e3a9;}.cls-2,.cls-3,.cls-8{fill:#fff;}.cls-2{opacity:0.7;}.cls-10,.cls-12,.cls-13,.cls-3,.cls-4,.cls-5,.cls-6,.cls-7,.cls-8{stroke:#263238;}.cls-11,.cls-12,.cls-13,.cls-3,.cls-4,.cls-5,.cls-6{stroke-miterlimit:10;}.cls-4{fill:#8ed7cc;}.cls-5{fill:#8c8c8c;}.cls-10,.cls-11,.cls-13,.cls-6{fill:none;}.cls-7,.cls-9{fill:#263238;}.cls-10,.cls-7,.cls-8{stroke-linecap:round;stroke-linejoin:round;}.cls-11{stroke:#8c8c8c;}.cls-13{stroke-width:1.34px;}</style></defs><g id="Background_Simple" data-name="Background Simple"><path class="cls-1" d="M417,25.46c-39.13,8.72-77.23,18.86-118.18,24.6-45.54,6.37-90.72.77-136.52,4.44C24.57,65.53-2,159.74,28.16,220.8c31.12,63,78.71,70,54.92,88-36,27.21-62.44,61.69-39.2,95,16.63,23.87,56.22,41.5,100.16,50.22,64.48,12.79,135.11,9.62,199.54-1.1,62.94-10.46,125-26,192.1-25.09,85,1.23,169.14,24.61,254.27,11.27,85.46-13.4,107.13-60.93,105.85-104.34-1.83-62-84.2-87-84.2-121,0-20,17.48-37.07,27.88-55.62,11.14-19.85,15.58-41.18,6.76-61.58C830.39,60,773.45,31.47,708.91,18.26c-73.35-15-159.62-14.69-234.58-3.7C454.68,17.44,435.7,21.29,417,25.46Z"/><path class="cls-2" d="M417,25.46c-39.13,8.72-77.23,18.86-118.18,24.6-45.54,6.37-90.72.77-136.52,4.44C24.57,65.53-2,159.74,28.16,220.8c31.12,63,78.71,70,54.92,88-36,27.21-62.44,61.69-39.2,95,16.63,23.87,56.22,41.5,100.16,50.22,64.48,12.79,135.11,9.62,199.54-1.1,62.94-10.46,125-26,192.1-25.09,85,1.23,169.14,24.61,254.27,11.27,85.46-13.4,107.13-60.93,105.85-104.34-1.83-62-84.2-87-84.2-121,0-20,17.48-37.07,27.88-55.62,11.14-19.85,15.58-41.18,6.76-61.58C830.39,60,773.45,31.47,708.91,18.26c-73.35-15-159.62-14.69-234.58-3.7C454.68,17.44,435.7,21.29,417,25.46Z"/></g><g id="Character"><path class="cls-3" d="M89,148.2l-5.75-1.75s-3,6.75-3.25,8.25S89,148.2,89,148.2Z"/><path class="cls-3" d="M79.76,148.2s-4.5,1.75-4.5,2.75,1.75,6.75,2.5,6.75S79.76,148.2,79.76,148.2Z"/><path class="cls-3" d="M84.26,148s-5.25-1.5-5.75-.5-.5,9-.5,9a8.59,8.59,0,0,0,3.25-1C82.26,154.7,84.26,148,84.26,148Z"/><path class="cls-3" d="M108.26,171.7l-10.75-9.5s-3-8.75-4.25-11.75S90.76,147,90,147.2s-6.75,5.5-9,6.75-5.75,3.75-5.75,3.75-1,1,1.75,1,7.5-3,7.5-3,2,5.25,3.75,7a8.18,8.18,0,0,0,4.5,2l12,16.5Z"/><path class="cls-3" d="M97.51,162.2s-1.25-6-2.25-7.75S89.51,152.7,86,152s-4.25.5-3.5,1.5,7.5,3,7.5,3,.25,6.75,1.5,8,4,1.5,4,1.5"/><path class="cls-3" d="M155.76,267s4.75,45,6.5,50.75S172,341,173.76,352.45s6,60.34,6.75,62.59a11.83,11.83,0,0,1,.75,3L180,419.79s-33.5.75-34.25,0,.5-4.5.5-4.5,9.25-5.75,12.5-7.5,6.5-4.25,6.75-8.25-2.5-18.09-6-28.84S147.76,344,144,330.2s-17-62-17-62Z"/><path class="cls-4" d="M181.26,418a11.83,11.83,0,0,0-.75-3c-.17-.53-.55-3.61-1-8.14a106.65,106.65,0,0,1-13.21.39l-1-4.75h-.6c-1.22,2.32-3.55,4-5.9,5.24-3.25,1.75-12.5,7.5-12.5,7.5s-1.25,3.75-.5,4.5,34.25,0,34.25,0Z"/><path class="cls-3" d="M145.76,419.79c.75.75,34.25,0,34.25,0l1.25-1.75a4,4,0,0,0-.1-.69l-35.52.42C145.49,418.64,145.45,419.48,145.76,419.79Z"/><path class="cls-3" d="M112.26,271.2s2.75,16.5,5,25.25,7,28,7,28,.5,21.5,1,29.75,3,30.75,3.5,33.5.25,12,.25,12a44.58,44.58,0,0,1-11.5,8.5c-9,4.8-15.25,7.25-16.5,8s.5,3.25,1.75,3.75,37.5,0,37.5,0,2.5-.25,2-6.25,1-33.25,1-37.25,6-29.25,4.25-43S145,317,145,317l-.75-46.25-32.75-1.5Z"/><path class="cls-4" d="M130,406.7a9.26,9.26,0,0,0-1-3.75c-1-2-1.75-1.5-1.75-1.5h0a49.12,49.12,0,0,1-9.71,6.74c-9,4.8-15.25,7.25-16.5,8s.5,3.25,1.75,3.75,37.5,0,37.5,0,2.5-.25,2-6.25c-.11-1.41-.12-4-.06-7.17A79.76,79.76,0,0,1,130,406.7Z"/><path class="cls-3" d="M140.26,420s1.41-.14,1.9-2.75H100.6a4.25,4.25,0,0,0,2.16,2.75C104,420.45,140.26,420,140.26,420Z"/><polygon class="cls-5" points="158.01 249.45 160.76 268.2 150.26 268.7 158.01 249.45"/><path class="cls-5" d="M117.76,207.7s-6.25,11.25-9.5,31.75-1.75,27-1.75,27a91.56,91.56,0,0,0,22,4.5,100.78,100.78,0,0,0,24.75-1.5s4-11.75,6.25-16.75,6.25-15,4.25-26.5-5-18-5-18Z"/><path class="cls-3" d="M106.76,264.45h-3.25v3l.25,1.75L105,270v3s2-.25,3-.25a3.49,3.49,0,0,1,2,1l1.25-.75,1.75,2,1.25-.5s.5,4,2,2.25,2-2.75,3-2.75a19.3,19.3,0,0,1,2.5.25s.75-2.5,3.25-.25l2.5,2.25,2-1,2.5,1,1.5-.5h2.25s5,2.25,5.25,1.5.75-2,.75-2l1.5.25a2.19,2.19,0,0,1,1.5-.5c1,0,2,1.25,3.5,0a2.84,2.84,0,0,1,2.75-.75l1.5-.5,2.25-.25-.25-2.75,3.25,1.75,2-2,1-2.25-4.07-1h-3.43l-2,.75-1,.75-3.5-.75H144l-6,2.25h-1.75c-3.5-1.75-3.75-1.5-5.5-1.5a14.62,14.62,0,0,0-3.5.5l-2.75.25-2-.25a6.66,6.66,0,0,0-2-1,19.44,19.44,0,0,0-3.25-.25s1.75,1.5-1.75-.75S111.26,265,110,265a3.85,3.85,0,0,0-2,.5Z"/><path class="cls-6" d="M125,220.32a21.2,21.2,0,0,0,1.56,5.63,15.66,15.66,0,0,0,10,8.75"/><path class="cls-6" d="M125.26,209.45a35.3,35.3,0,0,0-.57,8"/><path class="cls-6" d="M131.8,264.73c-.19,1.49-.29,2.22-.29,2.22"/><path class="cls-6" d="M140.76,210s-5.5,26.75-7,39c-.71,5.81-1.25,10.15-1.62,13.12"/><path class="cls-6" d="M115.58,229c-1.59,8-2.88,16.32-2.32,19.73,1.25,7.5,18,8,18.75,7.75"/><path class="cls-6" d="M119.76,210.2s-1.69,6.77-3.36,14.74"/><polyline class="cls-6" points="160.51 217.7 145.26 219.7 145.51 221.2 160.01 219.95"/><path class="cls-4" d="M119.51,174.2,99.76,164l-5.5,13.75s21.5,16.75,23,17.5S119.51,174.2,119.51,174.2Z"/><path class="cls-4" d="M130.76,139.2s-13.25,31.75-14.5,46.25S115,210,115,210l46-.25s5.75-33.5,7.5-53.5-8.75-25.5-19.25-25.5S133,134,130.76,139.2Z"/><path class="cls-7" d="M96.76,92.76s-9.08-3.34-11.71,2.63,9.08,16.73,17,16.73,7.65-13.86,4.54-17.44S96.76,92.76,96.76,92.76Z"/><path class="cls-8" d="M102,98.26s-1.43,7.41-.48,11.47,3.59,5,3.59,7.17-2.39,3.82-1.44,6c1.42,3.18,3.83,2.87,3.83,2.87s6.69,8.84,9.79,9.08,7.89-3.58,7.89-3.58l5.26,8.84s7.41-12.43,2.39-22.94-11.71-13.38-18.16-15.3S102,98.26,102,98.26Z"/><path class="cls-9" d="M108.66,114.67c-.59-1.07-.66-2.15-.17-2.42s1.36.38,1.94,1.44.67,2.15.18,2.42S109.25,115.73,108.66,114.67Z"/><path class="cls-10" d="M111.89,125.4a7,7,0,0,0,4.18-1.23,4,4,0,0,0,1.56-3.77"/><path class="cls-10" d="M104.75,110.81a2.65,2.65,0,0,1,2.3-3c2.62-.5,3.77.49,3.77.49"/><path class="cls-7" d="M98.2,95.15s7.88,7.65,14.34,9.32a87.55,87.55,0,0,1,8.84,2.63s12.18,14.34,9.79,22-4.06,10.51-3.82,13.86,3.82,4.78,1,7.4-4.07,1.2-4.07,1.2,3.35,2.63,6.93,2.63,5.26-5.74,8.37-11.47,3.34-7.89,9.08-7.17,13.62,12.19,14.81,19.12,2.16,20.55,2.16,20.55a67.71,67.71,0,0,0,11-6.45c6.93-4.78,7.17-15.54,5.26-24.38s-10.52-16.73-16.73-24.85S153.16,99,146,85.36s-15.05-16.25-25.81-12.67S99.87,84.16,99.87,84.16s-5-3.82-9.08,1S98.2,95.15,98.2,95.15Z"/><path class="cls-11" d="M146.19,127.69a8.26,8.26,0,0,1-.1,4"/><path class="cls-11" d="M124.68,107.63A42.09,42.09,0,0,1,139.4,116a20.23,20.23,0,0,1,6.23,9.31"/><path class="cls-11" d="M173.3,162a23.84,23.84,0,0,1-1.45,3.22"/><path class="cls-11" d="M116.26,97.07a34,34,0,0,0,5.41,2.2c11.71,3.68,29.1,10,41.81,29.1,9.33,14,11.81,22.94,10.76,29.88"/><path class="cls-11" d="M106.29,88.23s1.82,3.65,7,7.09"/><rect class="cls-12" x="72.19" y="139.37" width="2.37" height="34.64" rx="0.76" transform="matrix(0.86, -0.52, 0.52, 0.86, -70.34, 60.35)"/><path class="cls-3" d="M88.51,178l-3.75-4.25s-.25-1.75-3-6-5.5-5-6.75-7.25-2.5-5.25-3.75-5.25H70A2.32,2.32,0,0,0,67,157c-.75,2.5-2.5,5.75-1.5,7.25s1.75,7.25,2.5,10S80.51,181,80.51,181l7.25,3.75Z"/><path class="cls-3" d="M70,155.2s-1.5,1.25.25,4,2.75,6.25,4,8.5"/><path class="cls-4" d="M145.26,140.7S138,141,132.76,150s-11.5,44-11.5,44l-34.75-18.5L84.26,195.2s12.5,7.75,20,10.75,23.93,5.45,27.18,5.45,9.42-6.11,10.67-8.86,11.65-42.09,11.65-42.09"/></g><g id="Floor"><line class="cls-13" x1="485.62" y1="445" x2="853.71" y2="445"/><line class="cls-13" x1="38.82" y1="445" x2="469.8" y2="445"/><line class="cls-13" x1="17" y1="445" x2="27.65" y2="445"/></g></svg>